<?xml version="1.0" encoding="UTF-8" standalone="no"?>
<!DOCTYPE svg PUBLIC "-//W3C//DTD SVG 1.1//EN" "http://www.w3.org/Graphics/SVG/1.1/DTD/svg11.dtd">
<svg width="100%" height="100%" viewBox="0 0 144 131" version="1.1" xmlns="http://www.w3.org/2000/svg" xmlns:xlink="http://www.w3.org/1999/xlink" xml:space="preserve" style="fill-rule:evenodd;clip-rule:evenodd;stroke-linecap:round;stroke-linejoin:round;stroke-miterlimit:1.5;">
    <g id="Artboard1" transform="matrix(0.828941,0,0,0.897116,-220.896,-213.041)">
        <rect x="266.48" y="237.473" width="173.136" height="145.346" style="fill:none;"/>
        <g transform="matrix(1.20636,0,0,1.11468,-90.7186,-43.9031)">
            <circle cx="372.84" cy="317.636" r="51.578" style="fill:none;stroke:rgb(85,85,85);stroke-width:11px;"/>
        </g>
        <g transform="matrix(1.20636,0,0,1.3595,-91.9305,-125.374)">
            <rect x="309.638" y="311.732" width="25.259" height="17.264" style="fill:white;"/>
        </g>
        <g transform="matrix(1.20636,0,0,1.11468,-79.4443,-68.7609)">
            <path d="M327.392,334.032C332.823,334.032 338.023,331.841 341.816,327.955C347.934,321.688 356.587,312.823 356.587,312.823C357.842,311.537 358.423,309.738 358.158,307.961C357.676,305.161 358.515,302.188 360.65,300.001C364.237,296.326 370.132,296.255 373.807,299.842C377.482,303.428 377.553,309.324 373.966,312.999C371.831,315.185 368.879,316.096 366.064,315.719C364.292,315.498 362.519,316.119 361.272,317.396C359.47,319.228 356.793,321.96 353.866,324.95C351.922,326.935 351.357,329.892 352.433,332.454C353.51,335.015 356.017,336.682 358.796,336.682C367.858,336.682 377.301,336.682 377.301,336.682C379.097,336.682 380.791,335.841 381.877,334.41C383.544,332.109 386.258,330.633 389.314,330.633C394.449,330.633 398.618,334.802 398.618,339.937C398.618,345.072 394.449,349.241 389.314,349.241C386.258,349.241 383.544,347.764 381.847,345.486C380.768,344.064 379.086,343.229 377.301,343.229C373.212,343.213 365.909,343.204 358.812,343.199C356.032,343.195 353.521,344.86 352.442,347.423C351.363,349.985 351.928,352.945 353.874,354.931C356.797,357.918 359.472,360.647 361.272,362.477C362.519,363.755 364.292,364.375 366.064,364.154C368.879,363.777 371.831,364.688 373.966,366.875C377.553,370.549 377.482,376.445 373.807,380.032C370.132,383.619 364.237,383.547 360.65,379.873C358.515,377.686 357.676,374.712 358.158,371.912C358.423,370.135 357.842,368.336 356.587,367.05C356.587,367.05 347.934,358.185 341.816,351.918C338.023,348.032 332.823,345.841 327.392,345.841C316.424,345.841 298.727,345.841 298.727,345.841C295.468,345.841 292.823,343.195 292.823,339.937C292.823,336.678 295.468,334.032 298.727,334.032C298.727,334.032 316.424,334.032 327.392,334.032Z" style="fill:rgb(168,207,57);"/>
        </g>
    </g>
</svg>
